<mxfile host="app.diagrams.net" modified="2020-11-02T13:12:21.244Z" agent="5.0 (X11)" etag="bWabyd8Byb0Na-aZ6stO" version="13.8.7" type="github">
  <diagram id="5jZB0MULv0s9Xh8zhgM-" name="Page-1">
    <mxGraphModel dx="2051" dy="691" grid="1" gridSize="10" guides="1" tooltips="1" connect="1" arrows="1" fold="1" page="1" pageScale="1" pageWidth="850" pageHeight="1100" math="0" shadow="0">
      <root>
        <mxCell id="0" />
        <mxCell id="1" parent="0" />
        <mxCell id="3d7q3Th1NHqidStg-UQ_-10" value="" style="group;" vertex="1" connectable="0" parent="1">
          <mxGeometry x="-460" y="250" width="390" height="260" as="geometry" />
        </mxCell>
        <mxCell id="3d7q3Th1NHqidStg-UQ_-7" value="" style="rounded=0;whiteSpace=wrap;html=1;" vertex="1" parent="3d7q3Th1NHqidStg-UQ_-10">
          <mxGeometry y="20" width="390" height="240" as="geometry" />
        </mxCell>
        <mxCell id="3d7q3Th1NHqidStg-UQ_-8" value="Input handler" style="text;html=1;align=center;verticalAlign=middle;resizable=0;points=[];autosize=1;" vertex="1" parent="3d7q3Th1NHqidStg-UQ_-10">
          <mxGeometry width="100" height="20" as="geometry" />
        </mxCell>
        <mxCell id="3d7q3Th1NHqidStg-UQ_-4" value="KeyBoardInput" style="rounded=1;whiteSpace=wrap;html=1;fillColor=#ffe6cc;strokeColor=#d79b00;" vertex="1" parent="3d7q3Th1NHqidStg-UQ_-10">
          <mxGeometry x="10" y="30" width="120" height="60" as="geometry" />
        </mxCell>
        <mxCell id="3d7q3Th1NHqidStg-UQ_-12" value="VCAN" style="rounded=1;whiteSpace=wrap;html=1;fillColor=#ffe6cc;strokeColor=#d79b00;" vertex="1" parent="3d7q3Th1NHqidStg-UQ_-10">
          <mxGeometry x="320" y="55" width="50" height="170" as="geometry" />
        </mxCell>
        <mxCell id="3d7q3Th1NHqidStg-UQ_-17" value="InputManager" style="rounded=1;whiteSpace=wrap;html=1;fillColor=#fff2cc;strokeColor=#d6b656;" vertex="1" parent="3d7q3Th1NHqidStg-UQ_-10">
          <mxGeometry x="10" y="112" width="120" height="60" as="geometry" />
        </mxCell>
        <mxCell id="3d7q3Th1NHqidStg-UQ_-20" value="" style="endArrow=classic;html=1;exitX=0.5;exitY=1;exitDx=0;exitDy=0;entryX=0.5;entryY=0;entryDx=0;entryDy=0;" edge="1" parent="3d7q3Th1NHqidStg-UQ_-10" source="3d7q3Th1NHqidStg-UQ_-4" target="3d7q3Th1NHqidStg-UQ_-17">
          <mxGeometry width="50" height="50" relative="1" as="geometry">
            <mxPoint x="490" y="130" as="sourcePoint" />
            <mxPoint x="540" y="80" as="targetPoint" />
          </mxGeometry>
        </mxCell>
        <mxCell id="3d7q3Th1NHqidStg-UQ_-21" value="" style="endArrow=classic;html=1;entryX=0;entryY=0.5;entryDx=0;entryDy=0;exitX=1;exitY=0.5;exitDx=0;exitDy=0;" edge="1" parent="3d7q3Th1NHqidStg-UQ_-10" source="3d7q3Th1NHqidStg-UQ_-17" target="3d7q3Th1NHqidStg-UQ_-12">
          <mxGeometry width="50" height="50" relative="1" as="geometry">
            <mxPoint x="80" y="100" as="sourcePoint" />
            <mxPoint x="80" y="130" as="targetPoint" />
          </mxGeometry>
        </mxCell>
        <mxCell id="3d7q3Th1NHqidStg-UQ_-11" value="" style="group" vertex="1" connectable="0" parent="1">
          <mxGeometry x="50" y="110" width="450" height="540" as="geometry" />
        </mxCell>
        <mxCell id="3d7q3Th1NHqidStg-UQ_-2" value="" style="rounded=0;whiteSpace=wrap;html=1;" vertex="1" parent="3d7q3Th1NHqidStg-UQ_-11">
          <mxGeometry y="20" width="450" height="520" as="geometry" />
        </mxCell>
        <mxCell id="3d7q3Th1NHqidStg-UQ_-5" value="Engine" style="text;html=1;align=center;verticalAlign=middle;resizable=0;points=[];autosize=1;" vertex="1" parent="3d7q3Th1NHqidStg-UQ_-11">
          <mxGeometry width="60" height="20" as="geometry" />
        </mxCell>
        <mxCell id="3d7q3Th1NHqidStg-UQ_-24" style="edgeStyle=orthogonalEdgeStyle;rounded=0;orthogonalLoop=1;jettySize=auto;html=1;exitX=1;exitY=0.25;exitDx=0;exitDy=0;" edge="1" parent="3d7q3Th1NHqidStg-UQ_-11" source="3d7q3Th1NHqidStg-UQ_-15" target="3d7q3Th1NHqidStg-UQ_-22">
          <mxGeometry relative="1" as="geometry" />
        </mxCell>
        <mxCell id="3d7q3Th1NHqidStg-UQ_-15" value="VCAN" style="rounded=1;whiteSpace=wrap;html=1;fillColor=#ffe6cc;strokeColor=#d79b00;" vertex="1" parent="3d7q3Th1NHqidStg-UQ_-11">
          <mxGeometry x="20" y="44" width="50" height="466" as="geometry" />
        </mxCell>
        <mxCell id="3d7q3Th1NHqidStg-UQ_-31" style="edgeStyle=orthogonalEdgeStyle;rounded=0;orthogonalLoop=1;jettySize=auto;html=1;exitX=0.5;exitY=1;exitDx=0;exitDy=0;entryX=0.5;entryY=0;entryDx=0;entryDy=0;" edge="1" parent="3d7q3Th1NHqidStg-UQ_-11" source="3d7q3Th1NHqidStg-UQ_-22" target="3d7q3Th1NHqidStg-UQ_-26">
          <mxGeometry relative="1" as="geometry" />
        </mxCell>
        <mxCell id="3d7q3Th1NHqidStg-UQ_-40" style="edgeStyle=orthogonalEdgeStyle;rounded=0;orthogonalLoop=1;jettySize=auto;html=1;exitX=0.5;exitY=1;exitDx=0;exitDy=0;entryX=0.5;entryY=0;entryDx=0;entryDy=0;" edge="1" parent="3d7q3Th1NHqidStg-UQ_-11" source="3d7q3Th1NHqidStg-UQ_-22" target="3d7q3Th1NHqidStg-UQ_-39">
          <mxGeometry relative="1" as="geometry" />
        </mxCell>
        <mxCell id="3d7q3Th1NHqidStg-UQ_-22" value="CAN interpreter" style="rounded=1;whiteSpace=wrap;html=1;fillColor=#fff2cc;strokeColor=#d6b656;" vertex="1" parent="3d7q3Th1NHqidStg-UQ_-11">
          <mxGeometry x="160" y="131" width="120" height="60" as="geometry" />
        </mxCell>
        <mxCell id="3d7q3Th1NHqidStg-UQ_-42" style="edgeStyle=orthogonalEdgeStyle;rounded=0;orthogonalLoop=1;jettySize=auto;html=1;exitX=0.5;exitY=1;exitDx=0;exitDy=0;" edge="1" parent="3d7q3Th1NHqidStg-UQ_-11" source="3d7q3Th1NHqidStg-UQ_-26" target="3d7q3Th1NHqidStg-UQ_-41">
          <mxGeometry relative="1" as="geometry" />
        </mxCell>
        <mxCell id="3d7q3Th1NHqidStg-UQ_-26" value="EngineSimlulator" style="rounded=1;whiteSpace=wrap;html=1;fillColor=#fff2cc;strokeColor=#d6b656;" vertex="1" parent="3d7q3Th1NHqidStg-UQ_-11">
          <mxGeometry x="90" y="251" width="120" height="58" as="geometry" />
        </mxCell>
        <mxCell id="3d7q3Th1NHqidStg-UQ_-43" style="edgeStyle=orthogonalEdgeStyle;rounded=0;orthogonalLoop=1;jettySize=auto;html=1;entryX=0.5;entryY=0;entryDx=0;entryDy=0;" edge="1" parent="3d7q3Th1NHqidStg-UQ_-11" source="3d7q3Th1NHqidStg-UQ_-39" target="3d7q3Th1NHqidStg-UQ_-41">
          <mxGeometry relative="1" as="geometry" />
        </mxCell>
        <mxCell id="3d7q3Th1NHqidStg-UQ_-39" value="GearboxSimlulator" style="rounded=1;whiteSpace=wrap;html=1;fillColor=#fff2cc;strokeColor=#d6b656;" vertex="1" parent="3d7q3Th1NHqidStg-UQ_-11">
          <mxGeometry x="230" y="251" width="120" height="58" as="geometry" />
        </mxCell>
        <mxCell id="3d7q3Th1NHqidStg-UQ_-44" style="edgeStyle=orthogonalEdgeStyle;rounded=0;orthogonalLoop=1;jettySize=auto;html=1;entryX=1;entryY=0.75;entryDx=0;entryDy=0;" edge="1" parent="3d7q3Th1NHqidStg-UQ_-11" source="3d7q3Th1NHqidStg-UQ_-41" target="3d7q3Th1NHqidStg-UQ_-15">
          <mxGeometry relative="1" as="geometry" />
        </mxCell>
        <mxCell id="3d7q3Th1NHqidStg-UQ_-41" value="CAN interpreter" style="rounded=1;whiteSpace=wrap;html=1;fillColor=#fff2cc;strokeColor=#d6b656;" vertex="1" parent="3d7q3Th1NHqidStg-UQ_-11">
          <mxGeometry x="165" y="360" width="120" height="60" as="geometry" />
        </mxCell>
        <mxCell id="3d7q3Th1NHqidStg-UQ_-13" style="edgeStyle=orthogonalEdgeStyle;rounded=0;orthogonalLoop=1;jettySize=auto;html=1;exitX=1;exitY=0.5;exitDx=0;exitDy=0;" edge="1" parent="1" source="3d7q3Th1NHqidStg-UQ_-7" target="3d7q3Th1NHqidStg-UQ_-2">
          <mxGeometry relative="1" as="geometry" />
        </mxCell>
        <mxCell id="3d7q3Th1NHqidStg-UQ_-18" value="Utilities" style="rounded=1;whiteSpace=wrap;html=1;fillColor=#ffe6cc;strokeColor=#d79b00;" vertex="1" parent="1">
          <mxGeometry x="-450" y="40" width="120" height="60" as="geometry" />
        </mxCell>
        <mxCell id="3d7q3Th1NHqidStg-UQ_-19" value="Our components" style="rounded=1;whiteSpace=wrap;html=1;fillColor=#fff2cc;strokeColor=#d6b656;" vertex="1" parent="1">
          <mxGeometry x="-450" y="110" width="120" height="60" as="geometry" />
        </mxCell>
        <mxCell id="3d7q3Th1NHqidStg-UQ_-29" style="edgeStyle=orthogonalEdgeStyle;rounded=0;orthogonalLoop=1;jettySize=auto;html=1;exitX=1;exitY=0.5;exitDx=0;exitDy=0;" edge="1" parent="1" source="3d7q3Th1NHqidStg-UQ_-2">
          <mxGeometry relative="1" as="geometry">
            <mxPoint x="660" y="390" as="targetPoint" />
          </mxGeometry>
        </mxCell>
        <mxCell id="3d7q3Th1NHqidStg-UQ_-30" value="CAN " style="edgeLabel;html=1;align=center;verticalAlign=middle;resizable=0;points=[];" vertex="1" connectable="0" parent="3d7q3Th1NHqidStg-UQ_-29">
          <mxGeometry x="0.2093" relative="1" as="geometry">
            <mxPoint x="-15" as="offset" />
          </mxGeometry>
        </mxCell>
      </root>
    </mxGraphModel>
  </diagram>
</mxfile>
